# xmcd
#
# Track frame offsets:
# 150
# 12817
# 32962
# 49185
# 68225
# 75667
# 94243
# 115303
# 139170
# 158617
# 167950
# 186166
# 205485
# 226635
# 246185
# 254427
# 273677
# 294190
# 317047
# 333943
#
# Disc length: 4692 seconds
#
# Revision: 2
# Processed by: cddbd v1.5.2PL0 Copyright (c) Steve Scherf et al.
# Submitted via: TinyPlayer 2.8
#
DISCID=1e125214
DTITLE=Mary J. Blige - Love and Life
DYEAR=2003
DGENRE=R&B
TTITLE0=Mary J. Blige featuring Jay-Z and P. Diddy - Love and Life Intro
TTITLE1=Mary J. Blige - Don't Go
TTITLE2=Mary J. Blige - When We
TTITLE3=Mary J. Blige featuring Eve - Not Today
TTITLE4=Mary J. Blige - Finally Made It [Interlude]
TTITLE5=Mary J. Blige - Ooh!
TTITLE6=Mary J. Blige featuring 50 Cent - Let Me Be the 1
TTITLE7=Mary J. Blige featuring Method Man - Love @ 1st Sight
TTITLE8=Mary J. Blige - Willing and Waiting
TTITLE9=Mary J. Blige - Free [Interlude]
TTITLE10=Mary J. Blige - Friends
TTITLE11=Mary J. Blige - Press On
TTITLE12=Mary J. Blige - Feel Like Makin Love
TTITLE13=Mary J. Blige - It's a Wrap
TTITLE14=Mary J. Blige - Message in Our Music [Interlude]
TTITLE15=Mary J. Blige - All My Love
TTITLE16=Mary J. Blige - Special Part of Me
TTITLE17=Mary J. Blige - Ultimate Relationship (A.M.)
TTITLE18=Mary J. Blige - Didn't Mean
TTITLE19=Mary J. Blige - If I Don't Love You This Way
EXTD=UPC: 602498607008 - Catalogue #: 986070-0 - Label: Geffen Records - ASIN:  - Release Date: 2003 08 25 - Discogs:  - MUSICBRAINZ_ALBUMID: 0ed95424-50f7-4837-8ec2-38725a961d6b;
EXTT0=
EXTT1=
EXTT2=
EXTT3=
EXTT4=
EXTT5=
EXTT6=
EXTT7=
EXTT8=
EXTT9=
EXTT10=
EXTT11=
EXTT12=
EXTT13=
EXTT14=
EXTT15=
EXTT16=
EXTT17=
EXTT18=
EXTT19=
PLAYORDER=
